<svg width="24" height="24" viewBox="0 0 24 24" fill="none" xmlns="http://www.w3.org/2000/svg">
<path fill-rule="evenodd" clip-rule="evenodd" d="M14.9998 8C14.9998 9.65686 13.6567 11 11.9998 11C10.343 11 8.99981 9.65686 8.99981 8C8.99981 6.34315 10.343 5 11.9998 5C13.6567 5 14.9998 6.34315 14.9998 8ZM13.4998 8C13.4998 8.82843 12.8282 9.5 11.9998 9.5C11.1714 9.5 10.4998 8.82843 10.4998 8C10.4998 7.17157 11.1714 6.5 11.9998 6.5C12.8282 6.5 13.4998 7.17157 13.4998 8Z" fill="black"/>
<path fill-rule="evenodd" clip-rule="evenodd" d="M13.2408 17.8498C15.2518 15.8779 18.9998 11.7054 18.9998 8C18.9998 4.11 15.8658 1 11.9998 1C8.13381 1 4.9998 4.11 4.9998 8C4.9998 11.7054 8.74784 15.8779 10.7588 17.8498C11.4574 18.5349 12.5422 18.5349 13.2408 17.8498ZM15.6329 12.7332C16.7703 11.0555 17.4998 9.39555 17.4998 8C17.4998 4.94178 15.0407 2.5 11.9998 2.5C8.95888 2.5 6.4998 4.94178 6.4998 8C6.4998 9.39555 7.22927 11.0555 8.36674 12.7332C9.47683 14.3705 10.8393 15.8279 11.809 16.7789C11.8748 16.8433 11.9423 16.8636 11.9998 16.8636C12.0573 16.8636 12.1248 16.8433 12.1906 16.7789C13.1603 15.8279 14.5228 14.3705 15.6329 12.7332Z" fill="black"/>
<path d="M5.65778 15.0935C5.30907 14.7448 4.7245 14.8218 4.47793 15.2488L1.30183 20.75C0.724483 21.75 1.44617 23 2.60087 23H21.4017C22.5564 23 23.2781 21.75 22.7008 20.75L19.5236 15.2469C19.277 14.8199 18.6924 14.7429 18.3437 15.0916C18.1037 15.3316 18.0548 15.703 18.2245 15.9969L21.4017 21.5H2.60087L5.77697 15.9988C5.94669 15.7049 5.89781 15.3335 5.65778 15.0935Z" fill="black"/>
</svg>
