<?xml version="1.0" encoding="UTF-8"?>
<svg id="Layer_2" xmlns="http://www.w3.org/2000/svg" version="1.1" viewBox="0 0 800 800">
  <!-- Generator: Adobe Illustrator 29.0.1, SVG Export Plug-In . SVG Version: 2.1.0 Build 192)  -->
  <defs>
    <style>
      .st0 {
        display: none;
        stroke-miterlimit: 10;
      }

      .st0, .st1 {
        stroke: #fff;
      }

      .st1 {
        fill: #fff;
        stroke-linecap: round;
        stroke-linejoin: round;
        stroke-width: 23px;
      }
    </style>
  </defs>
  <ellipse class="st0" cx="390.5" cy="373.8" rx="503.5" ry="467"/>
  <path class="st1" d="M643.5,148.4c19,0,33.3,16.7,25.7,47.7l-93,438.3c-6.5,31.2-25.3,38.7-51.3,24.2l-221.8-163.8c-3-2.1-3.7-6.3-1.5-9.3.4-.6.9-1.1,1.5-1.5l256.2-231.3c11.7-10.3-2.5-15.3-17.8-6l-321.5,202.8c-2,1.3-4.4,1.6-6.7.8l-136.5-43.2c-30.3-8.8-30.3-29.7,6.8-44.5l546.2-210.7c4.3-2.1,9-3.3,13.8-3.5h-.1Z"/>
</svg>