<?xml version="1.0" encoding="UTF-8"?>
<svg id="_Шар_1" data-name="Шар_1" xmlns="http://www.w3.org/2000/svg" version="1.1" viewBox="0 0 800 800">
  <!-- Generator: Adobe Illustrator 29.0.1, SVG Export Plug-In . SVG Version: 2.1.0 Build 192)  -->
  <defs>
    <style>
      .st0 {
        fill: #fff;
      }

      .st1 {
        fill: #7f4da0;
        fill-rule: evenodd;
      }
    </style>
  </defs>
  <circle class="st0" cx="397" cy="392.6" r="398.4"/>
  <path id="Viber" class="st1" d="M400-81.7c266.1,0,481.7,215.7,481.7,481.7s-215.7,481.7-481.7,481.7S-81.7,666.1-81.7,400,133.9-81.7,400-81.7ZM428.9,114.5c32.8,4.1,59.2,12,88.3,26.1,28.6,14,46.8,27.2,71,51.2,22.7,22.7,35.2,39.9,48.6,66.7,18.6,37.3,29.1,81.6,30.9,130.4.7,16.6.2,20.3-3.6,25.1-7.2,9.2-23.1,7.7-28.6-2.7-1.7-3.4-2.2-6.4-2.8-19.7-1-20.4-2.4-33.7-5.2-49.4-11.2-61.9-40.9-111.3-88.4-146.8-39.5-29.7-80.4-44.1-133.9-47.3-18.1-1-21.2-1.7-25.3-4.8-7.6-6-8-20.1-.7-26.6,4.5-4.1,7.6-4.7,23.1-4.2,8.1.3,20,1.2,26.5,2h0ZM211.2,124.8c3.3,1.1,8.5,3.8,11.4,5.7,18.1,12,68.5,76.3,84.9,108.5,9.4,18.3,12.6,31.9,9.6,42-3,10.8-8.1,16.5-30.7,34.7-9,7.3-17.5,14.8-18.9,16.8-3.4,4.9-6.2,14.6-6.2,21.5,0,15.9,10.4,44.7,23.9,66.8,10.5,17.2,29.2,39.3,47.8,56.2,21.8,20,41,33.6,62.8,44.3,27.9,13.9,44.9,17.4,57.4,11.6,3.1-1.4,6.5-3.3,7.5-4.2,1-.9,8.3-9.8,16.3-19.7,15.4-19.4,18.9-22.5,29.5-26.1,13.4-4.6,27.1-3.3,40.9,3.7,10.5,5.4,33.3,19.6,48.1,29.9,19.4,13.6,60.9,47.4,66.6,54.2,9.9,12.2,11.6,27.8,4.9,45-7,18.2-34.5,52.2-53.6,66.7-17.3,13.1-29.6,18.2-45.8,18.9-13.3.7-18.9-.5-35.9-7.5-133.7-55-240.4-137.2-325.2-250.1-44.3-58.9-78-120.1-101-183.5-13.4-37-14.1-53.1-3-72,4.8-8,25-27.8,39.8-38.8,24.6-18.3,35.9-25,44.9-26.9,6.2-1.3,16.9-.3,23.8,2.2h0ZM435.4,183.4c57.8,8.5,102.6,35.3,131.9,78.8,16.5,24.5,26.8,53.3,30.3,84.2,1.2,11.3,1.2,31.9,0,35.4-1.2,3.2-5.2,7.6-8.7,9.4-3.7,1.9-11.6,1.7-16-.6-7.3-3.7-9.5-9.6-9.5-25.6,0-24.6-6.4-50.6-17.4-70.7-12.6-23-30.9-42-53.1-55.2-19.1-11.4-47.4-19.9-73.2-22-9.3-.8-14.5-2.7-18-6.8-5.4-6.2-6-14.5-1.4-21.5,5-7.7,12.6-8.9,35.3-5.5h0ZM455.7,255.2c18.8,4,33.1,11.1,45.4,22.6,15.8,14.9,24.5,33,28.3,58.9,2.6,16.9,1.5,23.6-4.5,29.1-5.6,5.1-16,5.3-22.3.5-4.6-3.4-6-7-7-16.8-1.2-13-3.5-22.2-7.4-30.6-8.4-18-23.1-27.3-48.1-30.3-11.7-1.4-15.2-2.8-19-7.2-7-8.3-4.3-21.7,5.3-26.6,3.6-1.8,5.1-2,13.1-1.5,5,.3,12.3,1.1,16.2,2h0Z"/>
</svg>