<?xml version="1.0" encoding="UTF-8"?>
<svg id="_Шар_1" data-name="Шар_1" xmlns="http://www.w3.org/2000/svg" version="1.1" viewBox="0 0 32 32">
  <!-- Generator: Adobe Illustrator 29.0.1, SVG Export Plug-In . SVG Version: 2.1.0 Build 192)  -->
  <defs>
    <style>
      .st0 {
        fill: #fff;
      }

      .st1 {
        display: none;
      }

      .st2, .st3 {
        stroke: #fff;
        stroke-miterlimit: 10;
      }

      .st3 {
        fill: #25d366;
        stroke-width: 2px;
      }
    </style>
  </defs>
  <g id="_Шар_2" class="st1">
    <rect class="st2" x="-6.7" y="-3" width="42" height="41.1"/>
  </g>
  <g id="Icons">
    <path class="st3" d="M17,1.1C9.8,1.1,3.9,6.9,3.9,14.1s1,5.7,2.8,8l-1.8,5.6c0,.3,0,.7.3,1,0,.2.3.3.5.3h.3l6-2.7c1.6.7,3.2,1,5,1,7.2,0,13.1-5.8,13.1-13.1S24.2,1.1,17,1.1Z"/>
    <path class="st0" d="M24.6,18.9c-.3,1-1.7,1.9-2.8,2.1h-.9c-.7,0-1.7-.2-3.6-1-2.1-.9-4.2-2.7-5.8-5.1h0c-.5-.9-1.5-2.4-1.5-3.9s1-2.9,1.3-3.3c.4-.4,1-.7,1.7-.7h.4c.6,0,1,.2,1.5,1l.3.7c.3.7.6,1.5.7,1.6.3.5.3,1,0,1.4,0,.3-.3.4-.4.6,0,.2-.2.3-.3.3l-.2.2c.3.4.8,1.2,1.5,1.8,1,1,1.8,1.2,2.3,1.4h0c.2-.2.3-.5.6-.8v-.2c.5-.6,1.2-.8,1.9-.5.3.2,2.3,1,2.3,1h.2c.3.3.6.3.8.7.3.8,0,1.9,0,2.5v.2Z"/>
  </g>
</svg>